<?xml version="1.0" encoding="utf-8"?><svg xmlns="http://www.w3.org/2000/svg" xmlns:xlink="http://www.w3.org/1999/xlink" width="1366" height="625" preserveAspectRatio="xMidYMid" viewBox="0 0 1366 625" style="z-index:1;margin-right:-2px;display:block;background-repeat-y:initial;background-repeat-x:initial;background-color:rgb(255, 255, 255);animation-play-state:paused" ><g transform="translate(683,312.5) scale(1,1) translate(-683,-312.5)" style="transform:matrix(1, 0, 0, 1, 0, 0);animation-play-state:paused" ><linearGradient id="lg-0.05465293316297415" x1="0" x2="1" y1="0" y2="0" style="animation-play-state:paused" ><stop stop-color="#ff00ff" offset="0" style="animation-play-state:paused" ></stop>

  
<stop stop-color="#00ffff" offset="1" style="animation-play-state:paused" ></stop></linearGradient>
<path d="M 0 0 L 0 558.276 Q 136.6 488.647 273.2 466.661 T 546.4 411.934 T 819.6 396.879 T 1092.8 328.448 T 1366 237.497 L 1366 0 Z" fill="url(#lg-0.05465293316297415)" opacity="0.4" style="opacity:0.4;animation-play-state:paused" ></path>
<path d="M 0 0 L 0 553.037 Q 136.6 524.504 273.2 497.683 T 546.4 422.607 T 819.6 377.732 T 1092.8 272.963 T 1366 245.574 L 1366 0 Z" fill="url(#lg-0.05465293316297415)" opacity="0.4" style="opacity:0.4;animation-play-state:paused" ></path>
<path d="M 0 0 L 0 562.412 Q 136.6 566.153 273.2 527.804 T 546.4 463.656 T 819.6 363.317 T 1092.8 352.441 T 1366 240.292 L 1366 0 Z" fill="url(#lg-0.05465293316297415)" opacity="0.4" style="opacity:0.4;animation-play-state:paused" ></path>
<path d="M 0 0 L 0 588.607 Q 136.6 469.256 273.2 453.088 T 546.4 438.809 T 819.6 410.784 T 1092.8 360.748 T 1366 297.775 L 1366 0 Z" fill="url(#lg-0.05465293316297415)" opacity="0.4" style="opacity:0.4;animation-play-state:paused" ></path>
<path d="M 0 0 L 0 590.912 Q 136.6 557.349 273.2 519.011 T 546.4 425.434 T 819.6 390.851 T 1092.8 327.525 T 1366 238.237 L 1366 0 Z" fill="url(#lg-0.05465293316297415)" opacity="0.4" style="opacity:0.4;animation-play-state:paused" ></path></g></svg>